<?xml version="1.0" encoding="utf-8"?>
<!-- Generator: Adobe Illustrator 27.5.0, SVG Export Plug-In . SVG Version: 6.00 Build 0)  -->
<svg version="1.1" id="Layer_1" xmlns="http://www.w3.org/2000/svg" xmlns:xlink="http://www.w3.org/1999/xlink" x="0px" y="0px"
	 viewBox="0 0 54 54" style="enable-background:new 0 0 54 54;" xml:space="preserve">
<style type="text/css">
	.st0{fill:#2C343D;}
</style>
<g>
	<path class="st0" d="M38.8,53.6c-1.8,0-3.6-0.5-5.3-1.4c-6.9-3.9-13-9-18-15.3l-0.4-0.5c-5-6.2-8.7-13.3-11-20.9L4,15.3
		c-1.2-4.1,0-8.5,3.2-11l3.5-2.8c1.1-0.8,2.4-1.2,3.8-1c1.3,0.2,2.5,0.9,3.4,1.9l8,10c2,2.6,1.7,6.2-0.7,8.2l-1.4,1.1
		c-0.3,0.3-0.4,0.8-0.1,1.3c1.3,2.2,3.6,5.6,7.2,9c0.4,0.4,1,0.4,1.3,0.2l1.4-1.1c2.4-2,6.1-1.5,8.1,1.1l7.5,9.3
		c0.9,1.1,1.3,2.4,1.2,3.7c-0.1,1.4-0.7,2.6-1.8,3.5L45,51.5C43.2,52.9,41,53.6,38.8,53.6z M13.8,4.4c-0.2,0-0.4,0-0.5,0.2L9.8,7.4
		c-1.9,1.5-2.7,4.2-1.9,6.7L8,14.4c2.1,7.1,5.6,13.7,10.3,19.5l0.4,0.5c4.7,5.8,10.3,10.6,16.8,14.3c2.3,1.3,5.1,1.2,7-0.4l3.6-2.9
		c0.2-0.2,0.3-0.4,0.3-0.6c0-0.3-0.1-0.6-0.3-0.9l-7.5-9.3c-0.7-0.8-1.8-1-2.5-0.5l-1.4,1.1c-1.9,1.5-4.6,1.4-6.5-0.3
		c-4.1-3.7-6.6-7.5-8-9.9c-1.2-2.2-0.8-4.9,1.1-6.4l1.4-1.1c0.7-0.6,0.8-1.7,0.1-2.5l-8-10c-0.2-0.3-0.5-0.4-0.8-0.5
		C14,4.4,13.9,4.4,13.8,4.4z"/>
</g>
</svg>
