<?xml version="1.0" encoding="utf-8"?>
<!-- Generator: Adobe Illustrator 27.5.0, SVG Export Plug-In . SVG Version: 6.00 Build 0)  -->
<svg version="1.1" id="Layer_1" xmlns="http://www.w3.org/2000/svg" xmlns:xlink="http://www.w3.org/1999/xlink" x="0px" y="0px"
	 viewBox="0 0 54 54" style="enable-background:new 0 0 54 54;" xml:space="preserve">
<style type="text/css">
	.st0{fill:#2C343D;}
</style>
<g>
	<path class="st0" d="M19.8,26.9h-9.1c-3.5,0-6.4-3.4-6.4-7.6V2c0-1.1,0.9-2,2-2s2,0.9,2,2v17.3c0,1.9,1.1,3.6,2.4,3.6h9.1
		c1.3,0,2.4-1.6,2.4-3.6V2c0-1.1,0.9-2,2-2s2,0.9,2,2v17.3C26.3,23.5,23.4,26.9,19.8,26.9z"/>
</g>
<g>
	<path class="st0" d="M15.3,53.9c-1.1,0-2-0.9-2-2L13.3,2.1c0-1.1,0.9-2,2-2s2,0.9,2,2l0.1,49.9C17.3,53,16.4,53.9,15.3,53.9z"/>
</g>
<g>
	<path class="st0" d="M46.3,53.9c-1.1,0-2-0.9-2-2V30.8h-11c-1.1,0-2-0.9-2-2V18.4c0-5.8,2.5-11.3,7.5-14.3l6.5-3.8
		c0.6-0.4,1.4-0.4,2,0c0.6,0.4,1,1,1,1.7v49.9C48.3,53,47.4,53.9,46.3,53.9z M35.3,26.8h9V5.5l-3.4,2C37,9.8,35.3,14,35.3,18.4V26.8
		z"/>
</g>
</svg>
