<?xml version="1.0" encoding="utf-8"?>
<!-- Generator: Adobe Illustrator 27.5.0, SVG Export Plug-In . SVG Version: 6.00 Build 0)  -->
<svg version="1.1" id="Layer_1" xmlns="http://www.w3.org/2000/svg" xmlns:xlink="http://www.w3.org/1999/xlink" x="0px" y="0px"
	 viewBox="0 0 54 54" style="enable-background:new 0 0 54 54;" xml:space="preserve">
<style type="text/css">
	.st0{fill:#2C343D;}
</style>
<g>
	<g>
		<path class="st0" d="M47.1,52.9H6.9c-1.1,0-2-0.9-2-2V15.7c0-1.1,0.9-2,2-2h2.3V3.1c0-1.1,0.9-2,2-2H43c1.1,0,2,0.9,2,2v10.7h2.1
			c1.1,0,2,0.9,2,2v35.2C49.1,52,48.3,52.9,47.1,52.9z M8.9,48.9h36.3V17.7H43c-1.1,0-2-0.9-2-2V5.1H13.1v10.7c0,1.1-0.9,2-2,2H8.9
			V48.9z"/>
	</g>
	<g>
		<path class="st0" d="M33,18.1H21c-1.1,0-2-0.9-2-2s0.9-2,2-2h12c1.1,0,2,0.9,2,2S34.1,18.1,33,18.1z"/>
	</g>
	<g>
		<path class="st0" d="M27,24.1c-1.1,0-2-0.9-2-2v-12c0-1.1,0.9-2,2-2s2,0.9,2,2v12C29,23.2,28.1,24.1,27,24.1z"/>
	</g>
	<g>
		<path class="st0" d="M18.1,42.4c-1.1,0-2-0.9-2-2v-1.6c0-1.1,0.9-2,2-2s2,0.9,2,2v1.6C20.1,41.5,19.2,42.4,18.1,42.4z"/>
	</g>
	<g>
		<path class="st0" d="M27,42.4c-1.1,0-2-0.9-2-2v-1.6c0-1.1,0.9-2,2-2s2,0.9,2,2v1.6C29,41.5,28.1,42.4,27,42.4z"/>
	</g>
	<g>
		<path class="st0" d="M35.9,42.4c-1.1,0-2-0.9-2-2v-1.6c0-1.1,0.9-2,2-2s2,0.9,2,2v1.6C37.9,41.5,37,42.4,35.9,42.4z"/>
	</g>
	<g>
		<path class="st0" d="M18.1,32.6c-1.1,0-2-0.9-2-2s0.9-2,2-2s2,0.9,2,2v0C20.1,31.7,19.2,32.6,18.1,32.6z"/>
	</g>
	<g>
		<path class="st0" d="M27,32.6c-1.1,0-2-0.9-2-2s0.9-2,2-2s2,0.9,2,2v0C29,31.7,28.1,32.6,27,32.6z"/>
	</g>
	<g>
		<path class="st0" d="M35.9,32.6c-1.1,0-2-0.9-2-2s0.9-2,2-2s2,0.9,2,2v0C37.9,31.7,37,32.6,35.9,32.6z"/>
	</g>
</g>
</svg>
