<?xml version="1.0" encoding="utf-8"?>
<!-- Generator: Adobe Illustrator 27.5.0, SVG Export Plug-In . SVG Version: 6.00 Build 0)  -->
<svg version="1.1" id="Layer_1" xmlns="http://www.w3.org/2000/svg" xmlns:xlink="http://www.w3.org/1999/xlink" x="0px" y="0px"
	 viewBox="0 0 17 17" style="enable-background:new 0 0 17 17;" xml:space="preserve">
<style type="text/css">
	.st0{fill:#407FBA;}
</style>
<g>
	<path class="st0" d="M11.2,16.9c0,0-0.1,0-0.1,0c0,0-0.1,0-0.1,0l-4.9-1.6l-4.2,1.4c-0.3,0.1-0.7,0.1-1-0.2
		c-0.3-0.2-0.5-0.5-0.5-0.9V3.1c0-0.5,0.3-0.9,0.8-1.1l4.7-1.6c0,0,0.1,0,0.1,0c0,0,0.1,0,0.1,0l0,0l0,0c0,0,0.1,0,0.1,0
		c0,0,0.1,0,0.1,0l4.9,1.6l4.2-1.4c0.3-0.1,0.7-0.1,1,0.2c0.3,0.2,0.5,0.5,0.5,0.9v12.5c0,0.5-0.3,0.9-0.8,1.1l-4.7,1.6
		c0,0-0.1,0-0.1,0C11.3,16.9,11.2,16.9,11.2,16.9z M1.6,3.1v12.3l3.9-1.3V1.8L1.6,3.1z M6.7,14.2l3.9,1.3V3.1L6.7,1.8V14.2z
		 M11.8,3.1v12.3l3.9-1.3V1.8L11.8,3.1z"/>
</g>
</svg>
