<?xml version="1.0" encoding="utf-8"?>
<!-- Generator: Adobe Illustrator 27.5.0, SVG Export Plug-In . SVG Version: 6.00 Build 0)  -->
<svg version="1.1" id="Layer_1" xmlns="http://www.w3.org/2000/svg" xmlns:xlink="http://www.w3.org/1999/xlink" x="0px" y="0px"
	 viewBox="0 0 1920 797" style="enable-background:new 0 0 1920 797;" xml:space="preserve">
<style type="text/css">
	.st0{fill:#FFFFFF;}
</style>
<path class="st0" d="M19.7,763.9c32.6-2.4,64.5-8.8,95.6-19c31.4-10,61.4-23.2,90.1-39.9c28.7-16.3,55.6-35.5,80.6-57.5
	c25.4-22.3,48-46.8,67.9-73.4c20.2-26.9,37.4-55.6,51.6-86c14.5-30.8,25.2-63,32.2-96.5c-12.7,7.9-24.6,14.6-35.8,20.4
	c-10.9,5.4-22.2,10-34,13.6c-11.5,3.6-23.9,6.3-37.1,8.2c-13,1.8-27.8,2.7-44.4,2.7c-20.8,0-42.9-3.9-66.1-11.8
	c-22.9-7.8-44.1-19.9-63.4-36.2c-19.3-16.3-35.3-37-48-62c-12.7-25.1-19-55-19-89.7c0-23.5,4.5-47.4,13.6-71.6
	c9.1-24.5,22.6-46.3,40.8-65.7c18.4-19.6,41.5-35.6,69.3-48c27.8-12.4,60.5-18.6,98.3-18.6c29.3,0,57.5,5.4,84.7,16.3
	c27.5,10.9,51.8,27.5,72.9,49.8c21.1,22,37.9,49.8,50.3,83.3c12.7,33.5,19,73.1,19,118.7c0,39.9-6.2,79.3-18.6,118.2
	c-12.4,38.6-29.7,75.5-52.1,110.5c-22.3,35-49.1,67.6-80.2,97.8c-31.1,29.9-65.5,56-103.3,78.4c-37.7,22.6-78,40.8-120.9,54.3
	c-42.9,13.6-87.3,21.6-133.1,24L19.7,763.9z M337.6,388.9c17.8,0,35.9-2.6,54.3-7.7c18.4-5.1,35.6-13,51.6-23.5
	c1.5-8.5,2.4-17.1,2.7-25.8c0.6-8.8,0.9-17.8,0.9-27.2c0-37.7-4.1-71.3-12.2-100.5c-8.2-29.6-19-54.5-32.6-74.7
	c-13.6-20.2-29.4-35.6-47.6-46.2c-17.8-10.6-36.5-15.9-56.2-15.9c-15.1,0-29.9,2.9-44.4,8.6s-27.5,14.5-38.9,26.3
	c-11.5,11.8-20.7,26.7-27.6,44.8c-6.9,18.1-10.4,39.7-10.4,64.8c0,25.1,3.8,48.5,11.3,70.2c7.5,21.4,18.3,40.2,32.2,56.2
	c13.9,15.7,30.6,28.1,50.3,37.1C290.9,384.4,313.1,388.9,337.6,388.9z M487.8,763.9c32.6-2.4,64.5-8.8,95.6-19
	c31.4-10,61.4-23.2,90.1-39.9c28.7-16.3,55.6-35.5,80.6-57.5c25.4-22.3,48-46.8,67.9-73.4c20.2-26.9,37.4-55.6,51.6-86
	c14.5-30.8,25.2-63,32.2-96.5c-12.7,7.9-24.6,14.6-35.8,20.4c-10.9,5.4-22.2,10-34,13.6c-11.5,3.6-23.9,6.3-37.1,8.2
	c-13,1.8-27.8,2.7-44.4,2.7c-20.8,0-42.9-3.9-66.1-11.8c-22.9-7.8-44.1-19.9-63.4-36.2c-19.3-16.3-35.3-37-48-62
	c-12.7-25.1-19-55-19-89.7c0-23.5,4.5-47.4,13.6-71.6c9.1-24.5,22.6-46.3,40.8-65.7c18.4-19.6,41.5-35.6,69.3-48
	c27.8-12.4,60.5-18.6,98.3-18.6c29.3,0,57.5,5.4,84.7,16.3c27.5,10.9,51.8,27.5,72.9,49.8c21.1,22,37.9,49.8,50.3,83.3
	c12.7,33.5,19,73.1,19,118.7c0,39.9-6.2,79.3-18.6,118.2c-12.4,38.6-29.7,75.5-52.1,110.5c-22.3,35-49.1,67.6-80.2,97.8
	c-31.1,29.9-65.5,56-103.3,78.4c-37.7,22.6-78,40.8-120.9,54.3c-42.9,13.6-87.3,21.6-133.1,24L487.8,763.9z M805.7,388.9
	c17.8,0,35.9-2.6,54.3-7.7c18.4-5.1,35.6-13,51.6-23.5c1.5-8.5,2.4-17.1,2.7-25.8c0.6-8.8,0.9-17.8,0.9-27.2
	c0-37.7-4.1-71.3-12.2-100.5c-8.2-29.6-19-54.5-32.6-74.7c-13.6-20.2-29.4-35.6-47.6-46.2c-17.8-10.6-36.5-15.9-56.2-15.9
	c-15.1,0-29.9,2.9-44.4,8.6c-14.5,5.7-27.5,14.5-38.9,26.3c-11.5,11.8-20.7,26.7-27.6,44.8c-6.9,18.1-10.4,39.7-10.4,64.8
	c0,25.1,3.8,48.5,11.3,70.2c7.5,21.4,18.3,40.2,32.2,56.2c13.9,15.7,30.6,28.1,50.3,37.1C759.1,384.4,781.2,388.9,805.7,388.9z
	 M1416,171c0,16.3-3.3,31.6-10,45.7c-6.3,14.2-14.9,27.6-25.8,40.3c-10.6,12.4-22.8,24.2-36.7,35.3c-13.9,10.9-28.4,21.1-43.5,30.8
	c19.3,13.6,38.2,27.8,56.6,42.6c18.7,14.5,35.3,29.9,49.8,46.2c14.5,16,26.1,33.2,34.9,51.6c9.1,18.1,13.6,37.7,13.6,58.9
	c0,23.9-4.8,46.9-14.5,69.3c-9.7,22-23.5,41.7-41.7,58.9c-18.1,17.2-40.3,30.9-66.6,41.2c-26.3,10.3-56.2,15.4-89.7,15.4
	c-37.4,0-69.6-4.8-96.5-14.5c-26.6-9.7-48.5-22.5-65.7-38.5c-17.2-16.3-29.9-34.7-38-55.3c-8.2-20.5-12.2-41.7-12.2-63.4
	c0-20.8,3.8-40,11.3-57.5c7.9-17.5,18.6-33.8,32.2-48.9c13.6-15.4,29.7-29.6,48.5-42.6c19-13.3,39.7-25.8,62-37.6
	c-15.7-12.1-30.8-24.3-45.3-36.7c-14.2-12.4-26.7-25.2-37.6-38.5c-10.9-13.3-19.6-27-26.3-41.2c-6.3-14.5-9.5-29.7-9.5-45.7
	c0-28.4,5.6-52.2,16.8-71.6c11.2-19.6,25.4-35.5,42.6-47.6c17.5-12.4,36.5-21.3,57.1-26.7c20.8-5.4,40.8-8.2,59.8-8.2
	c24.5,0,47.3,3,68.4,9.1c21.1,6,39.6,14.9,55.3,26.7c15.7,11.5,28.1,25.8,37.1,43C1411.5,128.9,1416,148.7,1416,171z M1364.8,550.6
	c0-17.8-4.5-34.7-13.6-50.7s-20.8-31.2-35.3-45.7c-14.5-14.8-31.1-29.1-49.8-43c-18.4-14.2-37.1-28.4-56.1-42.6
	c-20.5,13-37.4,26-50.7,38.9c-13.3,12.7-23.9,25.7-31.7,38.9c-7.9,13.3-13.4,27.2-16.8,41.7c-3,14.5-4.5,30-4.5,46.6
	c0,21.1,3.5,40.2,10.4,57.1c6.9,16.9,16.6,31.4,29,43.5c12.4,11.8,27,21,43.9,27.6c16.9,6.3,35.2,9.7,54.8,10
	c16,0.3,31.3-2,45.7-6.8c14.5-5.1,27.3-12.8,38.5-23.1c11.2-10.3,19.9-23.1,26.3-38.5C1361.5,589.1,1364.8,571.1,1364.8,550.6z
	 M1153.3,160.6c0,13.6,3.2,26.6,9.5,38.9c6.6,12.1,15.4,24,26.3,35.8c10.9,11.5,23.5,22.9,38,34.4c14.5,11.2,29.7,22.5,45.7,34
	c12.4-7.5,23.6-15.7,33.5-24.5c10-8.8,18.4-18.4,25.4-29c7.2-10.6,12.7-22.2,16.3-34.9c3.9-13,5.9-27.2,5.9-42.6
	c0-20.5-3.3-37.6-10-51.2c-6.3-13.9-14.5-24.9-24.5-33.1c-10-8.2-21-13.9-33.1-17.2c-11.8-3.3-23.1-5-34-5c-12.7,0-25.1,2-37.1,5.9
	c-11.8,3.9-22.3,9.8-31.7,17.7c-9.1,7.9-16.5,17.7-22.2,29.4C1156.1,131.2,1153.3,144.9,1153.3,160.6z M1868.7,171
	c0,16.3-3.3,31.6-10,45.7c-6.3,14.2-14.9,27.6-25.8,40.3c-10.6,12.4-22.8,24.2-36.7,35.3c-13.9,10.9-28.4,21.1-43.5,30.8
	c19.3,13.6,38.2,27.8,56.6,42.6c18.7,14.5,35.3,29.9,49.8,46.2c14.5,16,26.1,33.2,34.9,51.6c9.1,18.1,13.6,37.7,13.6,58.9
	c0,23.9-4.8,46.9-14.5,69.3c-9.7,22-23.5,41.7-41.7,58.9c-18.1,17.2-40.3,30.9-66.6,41.2c-26.3,10.3-56.1,15.4-89.7,15.4
	c-37.4,0-69.6-4.8-96.5-14.5c-26.6-9.7-48.5-22.5-65.7-38.5c-17.2-16.3-29.9-34.7-38.1-55.3c-8.2-20.5-12.2-41.7-12.2-63.4
	c0-20.8,3.8-40,11.3-57.5c7.8-17.5,18.6-33.8,32.2-48.9c13.6-15.4,29.7-29.6,48.5-42.6c19-13.3,39.7-25.8,62.1-37.6
	c-15.7-12.1-30.8-24.3-45.3-36.7c-14.2-12.4-26.7-25.2-37.6-38.5c-10.9-13.3-19.6-27-26.3-41.2c-6.3-14.5-9.5-29.7-9.5-45.7
	c0-28.4,5.6-52.2,16.8-71.6c11.2-19.6,25.4-35.5,42.6-47.6c17.5-12.4,36.5-21.3,57.1-26.7c20.8-5.4,40.8-8.2,59.8-8.2
	c24.5,0,47.2,3,68.4,9.1c21.1,6,39.6,14.9,55.3,26.7c15.7,11.5,28.1,25.8,37.1,43C1864.2,128.9,1868.7,148.7,1868.7,171z
	 M1817.5,550.6c0-17.8-4.5-34.7-13.6-50.7s-20.8-31.2-35.3-45.7c-14.5-14.8-31.1-29.1-49.8-43c-18.4-14.2-37.1-28.4-56.1-42.6
	c-20.5,13-37.4,26-50.7,38.9c-13.3,12.7-23.9,25.7-31.7,38.9c-7.8,13.3-13.4,27.2-16.8,41.7c-3,14.5-4.5,30-4.5,46.6
	c0,21.1,3.5,40.2,10.4,57.1c6.9,16.9,16.6,31.4,29,43.5c12.4,11.8,27,21,43.9,27.6c16.9,6.3,35.2,9.7,54.8,10
	c16,0.3,31.3-2,45.7-6.8c14.5-5.1,27.3-12.8,38.5-23.1c11.2-10.3,19.9-23.1,26.3-38.5C1814.2,589.1,1817.5,571.1,1817.5,550.6z
	 M1606,160.6c0,13.6,3.2,26.6,9.5,38.9c6.6,12.1,15.4,24,26.3,35.8c10.9,11.5,23.5,22.9,38,34.4c14.5,11.2,29.7,22.5,45.7,34
	c12.4-7.5,23.6-15.7,33.5-24.5c10-8.8,18.4-18.4,25.4-29c7.2-10.6,12.7-22.2,16.3-34.9c3.9-13,5.9-27.2,5.9-42.6
	c0-20.5-3.3-37.6-10-51.2c-6.3-13.9-14.5-24.9-24.5-33.1c-10-8.2-21-13.9-33.1-17.2c-11.8-3.3-23.1-5-34-5c-12.7,0-25.1,2-37.1,5.9
	c-11.8,3.9-22.3,9.8-31.7,17.7c-9.1,7.9-16.5,17.7-22.2,29.4C1608.8,131.2,1606,144.9,1606,160.6z"/>
</svg>
