<?xml version="1.0" encoding="utf-8"?>
<!-- Generator: Adobe Illustrator 27.5.0, SVG Export Plug-In . SVG Version: 6.00 Build 0)  -->
<svg version="1.1" id="Layer_1" xmlns="http://www.w3.org/2000/svg" xmlns:xlink="http://www.w3.org/1999/xlink" x="0px" y="0px"
	 viewBox="0 0 72 54" style="enable-background:new 0 0 72 54;" xml:space="preserve">
<style type="text/css">
	.st0{fill:#2C343D;}
</style>
<path class="st0" d="M52.7,2.1C51.9,1.8,51,2,50.5,2.6c-0.1,0.1-9.2,10-20.5,10H18.5c-7.3,0-13.2,5.9-13.2,13.2
	c0,7.2,5.7,13,12.8,13.2v11c0,1.1,0.9,2,2,2h4.4c0.9,0,1.6-0.5,1.9-1.4l3.9-11.6c12.3,0.2,20,9.7,20.1,9.8c0.4,0.5,1,0.8,1.6,0.8
	c0.2,0,0.4,0,0.7-0.1c0.8-0.3,1.3-1,1.3-1.9V4C53.9,3.1,53.4,2.4,52.7,2.1z M22,35.1V16.6h4.8v18.5H22z M9.2,25.8c0-5,3.9-9,8.8-9.2
	V35C13.1,34.8,9.2,30.8,9.2,25.8z M23,48h-1v-9h4L23,48z M49.9,42.8c-3.7-3.2-10.3-7.4-19.1-7.7V16.5c8.2-0.3,15.2-4.8,19.1-8V42.8z
	"/>
<g>
	<path class="st0" d="M62.5,25.1h4.2c1.1,0,2,0.9,2,2s-0.9,2-2,2h-4.2c-1.1,0-2-0.9-2-2S61.4,25.1,62.5,25.1z"/>
</g>
<g>
	<path class="st0" d="M61.1,38.5l2.9,2.9c0.8,0.8,0.8,2,0,2.8c-0.8,0.8-2,0.8-2.8,0l-2.9-2.9c-0.8-0.8-0.8-2,0-2.8
		S60.3,37.7,61.1,38.5z"/>
</g>
<g>
	<path class="st0" d="M61.1,15.5l2.9-2.9c0.8-0.8,0.8-2,0-2.8c-0.8-0.8-2-0.8-2.8,0l-2.9,2.9c-0.8,0.8-0.8,2,0,2.8
		C59,16.3,60.3,16.3,61.1,15.5z"/>
</g>
</svg>
