<svg width="106" height="83" viewBox="0 0 106 83" fill="none" xmlns="http://www.w3.org/2000/svg">
<path d="M4 79.3864V74.9519C4 57.8082 17.8978 43.9105 35.0415 43.9105C52.1852 43.9105 66.083 57.8082 66.083 74.9519V79.3864" stroke="#2C343D" stroke-width="7" stroke-linecap="round"/>
<path d="M57.2139 52.7795C57.2139 40.5341 67.1409 30.607 79.3864 30.607C91.6318 30.607 101.559 40.5341 101.559 52.7795V54.9967" stroke="#2C343D" stroke-width="7" stroke-linecap="round"/>
<path d="M35.0417 43.9105C44.8379 43.9105 52.7797 35.9687 52.7797 26.1725C52.7797 16.3761 44.8379 8.43449 35.0417 8.43449C25.2453 8.43449 17.3037 16.3761 17.3037 26.1725C17.3037 35.9687 25.2453 43.9105 35.0417 43.9105Z" stroke="#2C343D" stroke-width="7" stroke-linecap="round" stroke-linejoin="round"/>
<path d="M79.3865 30.607C86.734 30.607 92.69 24.6508 92.69 17.3035C92.69 9.9562 86.734 4 79.3865 4C72.039 4 66.083 9.9562 66.083 17.3035C66.083 24.6508 72.039 30.607 79.3865 30.607Z" stroke="#2C343D" stroke-width="7" stroke-linecap="round" stroke-linejoin="round"/>
</svg>
