<?xml version="1.0" encoding="utf-8"?>
<!-- Generator: Adobe Illustrator 27.5.0, SVG Export Plug-In . SVG Version: 6.00 Build 0)  -->
<svg version="1.1" id="Layer_1" xmlns="http://www.w3.org/2000/svg" xmlns:xlink="http://www.w3.org/1999/xlink" x="0px" y="0px"
	 viewBox="0 0 54 54" style="enable-background:new 0 0 54 54;" xml:space="preserve">
<style type="text/css">
	.st0{fill:#2C343D;}
</style>
<g>
	<path class="st0" d="M35.9,18c-5,0-9-4-9-9s4-9,9-9s9,4,9,9S40.9,18,35.9,18z M35.9,4c-2.8,0-5,2.2-5,5s2.2,5,5,5s5-2.2,5-5
		S38.7,4,35.9,4z"/>
</g>
<g>
	<path class="st0" d="M48.2,31H36.8c-0.5,0-1-0.2-1.4-0.6L20.3,15.6l-7.9,7.9c-0.8,0.8-2,0.8-2.8,0c-0.8-0.8-0.8-2,0-2.8l9.3-9.3
		c0.8-0.8,2.1-0.8,2.8,0L37.7,27h10.5c1.1,0,2,0.9,2,2S49.3,31,48.2,31z"/>
</g>
<g>
	<path class="st0" d="M25.2,54c-0.1,0-0.3,0-0.4,0c-1.1-0.2-1.8-1.3-1.5-2.4l3.3-14.9l-8-8.3c-0.8-0.8-0.8-2,0-2.8l7.2-7
		c0.8-0.8,2-0.8,2.8,0s0.8,2,0,2.8L22.8,27l7.4,7.6c0.5,0.5,0.7,1.2,0.5,1.8l-3.5,16C27,53.4,26.1,54,25.2,54z"/>
</g>
<g>
	<path class="st0" d="M17.6,43H2c-1.1,0-2-0.9-2-2s0.9-2,2-2h13.6v-3.5c0-1.1,0.9-2,2-2s2,0.9,2,2V41C19.6,42.1,18.7,43,17.6,43z"/>
</g>
</svg>
