<?xml version="1.0" encoding="utf-8"?>
<!-- Generator: Adobe Illustrator 27.5.0, SVG Export Plug-In . SVG Version: 6.00 Build 0)  -->
<svg version="1.1" id="Layer_1" xmlns="http://www.w3.org/2000/svg" xmlns:xlink="http://www.w3.org/1999/xlink" x="0px" y="0px"
	 viewBox="0 0 54 58" style="enable-background:new 0 0 54 58;" xml:space="preserve">
<style type="text/css">
	.st0{fill:#2C343D;}
</style>
<g>
	<path class="st0" d="M44.8,57.5H9.1c-1.1,0-2-0.9-2-2v-9c0-1.1,0.9-2,2-2h35.7c1.1,0,2,0.9,2,2v9C46.8,56.6,45.9,57.5,44.8,57.5z
		 M11.1,53.5h31.7v-5H11.1V53.5z"/>
</g>
<g>
	<path class="st0" d="M44.9,48.4H9.1V30.2c0-9.8,8-17.7,17.9-17.7s17.9,7.9,17.9,17.7V48.4z M13.1,44.5h27.7V30.2
		c0-7.6-6.2-13.7-13.9-13.7s-13.9,6.2-13.9,13.7V44.5z"/>
</g>
<g>
	<path class="st0" d="M25,6.7V2.5c0-1.1,0.9-2,2-2s2,0.9,2,2v4.2c0,1.1-0.9,2-2,2S25,7.8,25,6.7z"/>
</g>
<g>
	<path class="st0" d="M38.4,8l2.9-2.9c0.8-0.8,2-0.8,2.8,0s0.8,2,0,2.8l-2.9,2.9c-0.8,0.8-2,0.8-2.8,0C37.6,10.1,37.6,8.8,38.4,8z"
		/>
</g>
<g>
	<path class="st0" d="M15.5,8l-2.9-2.9c-0.8-0.8-2-0.8-2.8,0c-0.8,0.8-0.8,2,0,2.8l2.9,2.9c0.8,0.8,2,0.8,2.8,0
		C16.2,10.1,16.2,8.8,15.5,8z"/>
</g>
<g>
	<path class="st0" d="M18.5,30.8c-1.1,0-2-0.9-2-2c0-4.5,3.6-9.5,8.5-9.5c1.1,0,2,0.9,2,2s-0.9,2-2,2c-2.4,0-4.5,3-4.5,5.5
		C20.5,29.9,19.6,30.8,18.5,30.8z"/>
</g>
</svg>
