<?xml version="1.0" encoding="utf-8"?>
<!-- Generator: Adobe Illustrator 27.5.0, SVG Export Plug-In . SVG Version: 6.00 Build 0)  -->
<svg version="1.1" id="Layer_1" xmlns="http://www.w3.org/2000/svg" xmlns:xlink="http://www.w3.org/1999/xlink" x="0px" y="0px"
	 viewBox="0 0 54 54" style="enable-background:new 0 0 54 54;" xml:space="preserve">
<style type="text/css">
	.st0{fill:#2C343D;}
</style>
<g>
	<g>
		<path class="st0" d="M27,54c-4.9,0-9.6-1.3-13.8-3.8L4,52.4c-0.7,0.2-1.4,0-1.9-0.5c-0.5-0.5-0.7-1.2-0.6-1.9l2-9.7
			C1.2,36.2,0,31.7,0,27C0,12.1,12.1,0,27,0s27,12.1,27,27S41.9,54,27,54z M13.6,45.9c0.4,0,0.8,0.1,1.1,0.3
			c3.7,2.4,7.9,3.6,12.3,3.6c12.6,0,22.8-10.2,22.8-22.8S39.6,4.2,27,4.2S4.2,14.4,4.2,27c0,4.2,1.1,8.3,3.3,11.8
			c0.3,0.4,0.4,1,0.3,1.5l-1.5,7.3l6.9-1.6C13.3,45.9,13.4,45.9,13.6,45.9z"/>
	</g>
	<g>
		<path class="st0" d="M40,24.3H14c-1.1,0-2-0.9-2-2s0.9-2,2-2h26c1.1,0,2,0.9,2,2S41.1,24.3,40,24.3z"/>
	</g>
	<g>
		<path class="st0" d="M29.9,33.5H15.2c-1.1,0-2-0.9-2-2c0-1.1,0.9-2,2-2h14.7c1.1,0,2,0.9,2,2C31.9,32.6,31,33.5,29.9,33.5z"/>
	</g>
</g>
</svg>
