<?xml version="1.0" encoding="utf-8"?>
<!-- Generator: Adobe Illustrator 27.5.0, SVG Export Plug-In . SVG Version: 6.00 Build 0)  -->
<svg version="1.1" id="Layer_1" xmlns="http://www.w3.org/2000/svg" xmlns:xlink="http://www.w3.org/1999/xlink" x="0px" y="0px"
	 viewBox="0 0 54 54" style="enable-background:new 0 0 54 54;" xml:space="preserve">
<style type="text/css">
	.st0{fill:#2C343D;}
</style>
<g>
	<path class="st0" d="M39.7,17.9c-5,0-9-4-9-9s4-9,9-9s9,4,9,9S44.7,17.9,39.7,17.9z M39.7,3.9c-2.8,0-5,2.2-5,5s2.2,5,5,5
		s5-2.2,5-5S42.5,3.9,39.7,3.9z"/>
</g>
<g>
	<path class="st0" d="M22.4,53.9H5.8c-1.1,0-2-0.9-2-2s0.9-2,2-2h15l6.3-26.3L18,27.9l3.4,3.8c0.7,0.8,0.6,2.1-0.2,2.8
		c-0.8,0.7-2.1,0.6-2.8-0.2l-5.1-5.8c-0.4-0.5-0.6-1.1-0.5-1.7c0.1-0.6,0.5-1.1,1.1-1.4l15.3-7.3c0.7-0.3,1.5-0.2,2.1,0.3
		s0.9,1.3,0.7,2l-7.6,31.9C24.2,53.3,23.3,53.9,22.4,53.9z"/>
</g>
<g>
	<path class="st0" d="M39.7,53.9c-1.1,0-2-0.9-2-2v-14h-5c-1.1,0-2-0.9-2-2s0.9-2,2-2h7c1.1,0,2,0.9,2,2v16
		C41.7,53,40.8,53.9,39.7,53.9z"/>
</g>
</svg>
